<?xml version="1.0" encoding="iso-8859-1"?>
<!-- Generator: Adobe Illustrator 19.0.0, SVG Export Plug-In . SVG Version: 6.00 Build 0)  -->
<svg version="1.1" id="Capa_1" xmlns="http://www.w3.org/2000/svg" xmlns:xlink="http://www.w3.org/1999/xlink" x="0px" y="0px"
	 viewBox="0 0 512 512" style="enable-background:new 0 0 512 512;" xml:space="preserve">
<path style="fill:#ACE3FC;" d="M395.154,143.535H382.48C374.638,80.657,321.003,32,256,32l0,0
	c-65.003,0-118.638,48.657-126.479,111.535h-12.674C52.314,143.535,0,195.85,0,260.382l0,0c0,64.532,52.314,116.846,116.846,116.846
	h278.307c64.532,0,116.846-52.314,116.846-116.846l0,0C512,195.85,459.686,143.535,395.154,143.535z"/>
<path style="fill:#86D6F2;" d="M395.154,143.535H382.48C374.638,80.656,321.003,32,256,32l0,0v345.229h139.154
	c64.532,0,116.846-52.314,116.846-116.847S459.686,143.535,395.154,143.535z"/>
<polygon style="fill:#FFAB15;" points="256,204.787 129.787,331 171,331 171,480 341,480 341,331 382.213,331 "/>
<polygon style="fill:#FF9400;" points="256,204.787 256,480 341,480 341,331 382.213,331 "/>
<g>
</g>
<g>
</g>
<g>
</g>
<g>
</g>
<g>
</g>
<g>
</g>
<g>
</g>
<g>
</g>
<g>
</g>
<g>
</g>
<g>
</g>
<g>
</g>
<g>
</g>
<g>
</g>
<g>
</g>
</svg>
